<?xml version="1.0" encoding="utf-8"?>
<!-- Generator: Adobe Illustrator 19.2.0, SVG Export Plug-In . SVG Version: 6.00 Build 0)  -->
<svg version="1.1" id="Layer_1" xmlns="http://www.w3.org/2000/svg" xmlns:xlink="http://www.w3.org/1999/xlink" x="0px" y="0px"
	 width="400px" height="228px" viewBox="0 0 400 228" style="enable-background:new 0 0 400 228;" xml:space="preserve">
<style type="text/css">
	.st0{fill:#FFFFFF;}
</style>
<path class="st0" d="M134.2,89.5c4.1-2.9,7.2-6.5,9.9-10.5c5.3-7.9,7.3-16.8,8-26.1c0.8-9.6,1.1-19.3,3.4-28.7c2-8,5.6-15.1,13-19.6
	c5.1-3.1,10.6-4.4,16.6-3.3c5.9,1.1,8.5,6,6.3,11.6c-1.3,3.2-3.3,5.9-5.9,8.1c-2.7,2.3-5.9,2.7-9.2,2.3c-2.9-0.4-4-2.9-2.7-5.5
	c0.2-0.3,0.3-0.8,0.8-0.5c0.3,0.1,0.3,0.5,0.2,0.8c-0.2,2.8,0.1,3.1,2.9,3.5c2.3,0.3,4.4-0.2,6-1.8c3-2.8,4.9-6.2,5-10.4
	c0-2.8-0.9-3.9-3.6-4.7c-8.1-2.2-16.7,1.2-21.8,8.8c-3.6,5.3-5.1,11.2-6.1,17.4c-1.5,8.9-1.6,17.8-2.6,26.7
	c-1.6,13.9-7.4,25.4-18.5,34c-1,0.8-0.7,1.4-0.5,2.3c3.7,14.7,3.9,29.5,0.9,44.3c-1,4.7-3.1,8.9-6.1,12.7c-0.1,0.1-0.2,0.3-0.4,0.5
	c-4.4,5.3-9.5,6-15,2c-1.1,2.6-2.1,5.2-3.3,7.7c-1.5,3.3-3.7,6-7.1,7.5c-2.2,1-4.4,1.1-6.7,0.3c-4-1.5-7.3-4-9.3-7.8
	c-5-9.3-7.3-19.3-7.8-29.8c-0.2-4.8-0.3-4.8-5.1-3.9c-7.1,1.3-14.4,1.2-21.6,1.1c-10.2-0.2-20,1.7-29.3,5.9
	c-8.7,4-15.3,10.3-18,19.7c-2.8,9.6,2.8,21,11.6,24.3c4.9,1.8,9.7,1.3,14.4-0.5c7.7-3,13.6-8,15.8-16.3c1.3-4.9-0.1-9.3-3.8-12.8
	c-3.4-3.3-8.4-2.6-10.9,1.4c-1.7,2.7-2.6,5.7-1.6,9c0.3,0.9,0.6,1.9,0.2,3.1c-1.2-0.5-1.6-1.5-1.8-2.6c-0.8-4.9,0.5-9.2,4.1-12.6
	c2.9-2.7,6.7-2.9,10.5-0.6c5.9,3.5,8.6,11.4,6,18.8c-3.8,10.6-11.9,15.7-22.7,17.1C15.9,184,4.3,176.1,1.6,164
	c-2.1-9.4,0-17.9,6.1-25.5c6.8-8.5,16.1-12.8,26.3-15.4c9.6-2.4,19.4-2.3,29.2-2.2c5.2,0.1,10.5,0,15.7-0.4c1.2-0.1,1.6-0.5,1.7-1.7
	c0.3-4,0.1-8.1,1-12c1.2-5.2,4-8.1,9.2-9c3.5-0.6,7.9,2.7,8.9,6.7c1.2,4.7-0.1,8.7-3,12.3c-2.6,3.3-5.7,6-9.3,8.2
	c-0.7,0.4-1.1,1-1.1,1.8c1,9.9,1.7,19.9,5.8,29.2c1,2.3,2.4,4.4,4,6.3c2.4,2.6,5.2,3.1,8.1,1.2c4.6-3,7-7.5,8-12.8
	c0.1-0.8-0.3-1.5-0.6-2.1c-3.2-5.7-4.2-11.9-3.4-18.3c0.2-1.5,0.8-3,1.9-4.1c0.9-1,1.5-1,2.3,0.3c2.6,4.5,3.4,9.5,3.5,14.6
	c0,2,0,4.1,0,6.1c0,4.2,4.3,6.9,8.2,5.3c2.6-1.1,4.1-3.2,5.3-5.5c2.6-5.1,3.7-10.7,4.5-16.4c1.7-11.5,0.8-23-2.1-34.2
	c-0.4-1.4-0.7-1.5-2-0.9c-12.5,5.3-26.6,0.3-32.1-11.2c-3.6-7.6-2.3-15.5,3.4-20.8c4.8-4.5,10.5-4.9,15.9-1.2
	c3.8,2.6,6.5,6.3,9,10.1c3.1,5,5.6,10.3,7.6,15.9C133.8,88.5,134,88.9,134.2,89.5 M112.9,142.8c0.1,0.1,0.2,0.2,0.3,0.4
	c0-0.2,0.1-0.3,0.1-0.5c-0.5-4.2,0.3-8.6-1.8-13.1C110,134.5,110.9,138.7,112.9,142.8 M119.6,94.7c3.4,0,6.6-0.9,9.8-2.2
	c1.1-0.5,1.2-1,0.8-2c-2.1-6.2-4.8-12.3-8.1-17.9c-1.7-2.8-3.6-5.4-6-7.6c-6.5-5.8-13.2-1.5-15,3.8c-3.6,10.8-0.6,19.8,10.5,24.5
	C114,94.2,116.8,94.6,119.6,94.7 M85.4,119.9c2.1-0.8,3.6-2.2,5.2-3.3c3.4-2.4,6-5.2,5.7-9.9c-0.2-3.3-2.4-4.5-5.2-2.8
	c-2.8,1.7-4.7,4.1-5.1,7.5C85.8,114.1,85.7,116.9,85.4,119.9"/>
<path class="st0" d="M226.2,102.8c-0.7,5.5-9.6,8.4-16.6,5.5c-1.9,4.8-5.5,7.7-10.3,9.2c-0.8,0.3-1.4,0.7-1.9,1.3
	c-3.2,3.5-6.8,6.1-11.9,5c-2.7-0.6-4.8-2.3-6.5-4.7c-1,0.9-1.3,2.1-1.7,3.2c-1.2,3-2.9,5.7-5.2,7.9c-4,3.8-11,2.5-13.3-2.5
	c-4.3-9.5-1.2-20.5,6-26.3c1.5-1.2,3.1-2.1,5-2.4c1.2-0.2,1.3-0.6,1.2-1.8c-2-11.6-3.1-23.2-2.1-34.9c0.5-5.8,1.1-11.6,4.4-16.7
	c0.9-1.4,1.8-2.6,3.7-2.5c2,0.1,3,1.4,3.6,3c1.8,4.6,2.4,9.6,2.7,14.5c0.5,10.8,0.9,21.6,0.2,32.4c-0.4,5.6-1.3,11.2-2.4,16.7
	c-0.9,4.5,2.7,10.5,7.1,11.9c3.8,1.2,6.3-1.1,9.2-3.5c-5.6,0-7.2-3.8-8.3-7.9c-2.4-8.7,2.4-20.1,10.2-24.3c1-0.6,1-1.2,0.9-2.1
	c-1.5-14.2-1.4-28.5,1.3-42.6c0.3-1.8,0.8-3.6,1.8-5.2c1.2-1.8,2.8-2.2,4.6-1c1.9,1.3,3.1,3.2,4,5.3c1.8,4.8,2.5,9.8,3.1,14.8
	c1.9,16.6,0.7,32.9-3.7,49c-0.3,0.9,0,1.4,0.7,2c2,1.6,4.4,1.7,6.7,1.1c2.4-0.6,4.5-1.8,6.4-3.4
	C225.2,103.4,225.5,102.8,226.2,102.8 M209.2,101.9c0.3-0.8,0.4-1.2,0.5-1.6c1.7-6.2,2.6-12.5,3-18.9c1-12.9-0.3-25.7-2.4-38.4
	c-0.3-2-0.8-4-2-5.8c-0.6-1-1.2-2.2-2.5-2c-1.4,0.1-1.8,1.5-2.2,2.6c-0.6,1.6-0.7,3.2-0.9,4.9c-0.9,12.8-0.6,25.6,0.4,38.3
	C203.8,88.3,206,95,209.2,101.9 M179,106.9c1.2-3.1,1.6-6.3,1.9-9.5c1.3-14,0.5-28-0.1-42c-0.1-2.9-0.6-5.8-1.8-8.6
	c-0.4-1-0.9-2.2-2-2.4c-1.1-0.1-1.8,1-2.4,1.9c-1.8,2.4-2.1,5.3-2.1,8.2c0,13.8,1.4,27.4,4.1,41C177.3,99.4,178.2,103.1,179,106.9
	 M171.4,100.8c-8.2,7-10.4,15.7-8.4,25.6c0.9,4.5,4,5.4,7.6,2.6c2.9-2.3,4.6-5.4,5.9-8.8c0.9-2.1,1.2-4.1-0.5-6
	c-0.6-0.7-0.9-1.7-1.2-2.6C173.4,108.1,172.2,104.6,171.4,100.8 M201.1,90c-2.7,3.4-4.8,6.7-6.1,10.5c-1.4,4.3-1.2,8.6,0.5,12.7
	c0.8,2,1.7,2.5,3.8,2.1c2.9-0.6,5-2.5,6.7-4.8c2-2.8,2-3.3,0.2-6.2c-1-1.6-1.8-3.3-2.4-5C202.7,96.4,202,93.3,201.1,90"/>
<path class="st0" d="M339.4,27.7c-2.3-3.3-2.2-7-0.1-10c2.2-3,6-4.4,9.3-3.4c6.9,2,10.7,8.4,9.5,16.3c-1.5,10-7.1,17.5-15.1,23.3
	c-4.8,3.5-10.2,5.7-15.6,8.1c-7.4,3.3-14.9,6.5-21.8,10.9c-4.3,2.7-8.2,5.9-11.2,10.1c-0.7,0.9-0.8,1.7-0.5,2.8
	c1.5,6.1,4,12,5.3,18.2c1.3,6.5,1.1,12.8-1.4,19c-0.8,2-2.1,3.5-3.7,4.8c-2.4,1.9-5.2,1.6-7.9-0.6c-4-3.2-5.7-7.6-6.4-12.5
	c-1.2-8.6,1.3-16.6,4.8-24.3c0.4-0.9,0.7-1.8,1.3-2.6c3-3.6,2-7.5,0.7-11.4c-1.4,1.2-2.8,2.4-4.5,3.2c-4.3,1.8-7.6,0.7-9.9-3.4
	c-1.6-2.8-1.9-5.9-1.7-9.1c0.4-6,2.4-11.4,6.7-15.7c2.4-2.4,5.2-3.7,8.6-3.7c1.2,0,1.5-0.5,1.7-1.5c0.5-2,1.3-3.9,3.2-5
	c0.7-0.4,1.2-0.4,1.8,0.3c1.6,2,2.2,4.3,2.2,6.8c0,6.3-1.1,12.4-3.4,18.2c-1,2.5-1.2,4.7-0.4,7.2c0.4,1.1,0.6,2.3,1,3.8
	c0.8-0.8,1.3-1.4,1.9-2c5.7-5.9,12.8-9.7,20.1-13.2c7.9-3.8,16-7.1,23.4-11.8c7.9-5,13.3-11.9,15.8-20.9c0.8-2.7,1-5.4,0.3-8.1
	c-1.5-5.6-8.3-7.4-12.5-3.4c-1.4,1.4-1.8,3.1-1.8,4.9v4.7H339.4z M290,90.5c-3.6,5.4-6,11.1-6.4,17.4c-0.3,4.8-0.2,9.5,2.2,13.8
	c0.7,1.2,1.6,2.1,3.1,2.2c3.3,0.3,4.5-0.6,5.6-4.1C297.9,109.3,293.4,100,290,90.5 M286.9,49.9c-2.8,2.4-5.4,4.5-7.1,7.7
	c-2,3.8-3.3,7.7-4,11.9c-0.4,2.1-0.7,4.3,0,6.4s2.1,3.1,4.2,2.7c2.4-0.5,4.1-2.2,5.7-3.9c1.2-1.2,0.5-2.5,0.4-3.8
	C285.4,63.9,285.8,57,286.9,49.9 M290.4,65c0.6-2.1,1.2-4.1,1.7-6.2c1-4.2,1.5-8.4,0.6-12.7c-0.1-0.4,0-1-0.5-1.1s-0.7,0.4-1,0.8
	c-1.3,1.9-1.9,4-2.1,6.3C288.8,56.4,289.4,60.6,290.4,65"/>
<path class="st0" d="M394.1,116.1c3.8,2,4.5,5.7,4.8,9.4c0.3,4.1-0.8,8-2.5,11.7c-3.9,8.5-10.1,14.8-18,19.6
	c-5.3,3.3-10.6,6.4-16.9,7.5c-9.4,1.8-17.5-0.5-23.9-7.8c-3.4-3.9-6.4-8.1-10.1-11.9c-1.6-1.6-3.2-2.9-5.4-3.5
	c-1.2-0.4-1.9-0.1-2.3,1.1c-1.1,3-1.3,6.1-2,9.2c-0.2,1.2-0.5,2.4-0.9,3.5c-0.1,0.4-0.1,1-0.7,1c-0.5,0-0.7-0.5-0.8-1
	c-0.1-0.6-0.2-1.1-0.4-1.8c-1.9,2.2-3.7,4.3-5.9,5.9c-2.7,1.9-5.5,3.2-8.9,2.9c-4.2-0.3-7-2.5-8.6-6.3c-1-2.4-1.2-4.9-0.8-7.5
	c0.8-5.1,2.9-9.5,6.5-13.2c1.1-1.1,2.2-2,3.9-2.3c2.2-0.4,3.9,0.9,4,3.1c0,1.9-0.2,3.7-0.7,5.5c-0.3,1-0.9,1.9-2.2,2.3
	c-0.3-1.3,0.4-2.3,0.9-3.3c0.6-1.4,1.3-2.8,0.8-4.4c-0.3-1.1-0.9-1.6-2.1-1c-1.3,0.7-2.3,1.6-3,2.9c-2.9,5-3.7,10.3-2.1,15.9
	c1.5,4.9,5.5,6.5,10.1,4.3c5.9-2.9,9.6-10,8.9-16.5c-0.9-8.1-3.3-16-4.3-24.2c-0.8-6.4-2.3-12.7-2.5-19.2c-0.1-2.7,0.1-5.4,1-7.9
	c1.3-3.7,4.1-6.3,7.9-7.6c2.1-0.7,4.1,0.4,5.5,2.5c1.3,2.2,1.9,4.6,2.1,7.1c0.9,10.2,1.1,20.4,0.2,30.6c0,0.3,0,0.6,0,1.4
	c1.9-2.1,3.9-3.6,5.4-5.7c1.2-1.7,3.1-1.8,4.4-0.1c1.5,2.1,1.5,4.4,1.1,6.8c-0.7,3.6-2.9,6.4-5.5,8.8c-1.6,1.6-3.3,3-5.2,4.6
	c6.1,3.3,9.7,9,14.1,13.9c5,5.7,11.3,8.6,18.9,7.9c6.6-0.6,12.6-3.3,18.1-6.9c6.3-4.2,11.5-9.5,15.7-15.9c2.8-4.3,4.2-9,4.1-14.1
	C396.7,120.6,395.9,118.1,394.1,116.1C394,116.2,394.1,116.2,394.1,116.1 M318.3,136.4c3-12.1,4-24.4,4.3-36.8
	c0.1-3.5-0.2-7-1.6-10.3c-0.6-1.4-1.2-2.8-2.9-3c-1.9-0.2-3.3,0.7-4.4,2.2c-0.8,1.1-1.2,2.4-1.5,3.7c-0.5,2.3-0.4,4.7-0.2,7.1
	c0.8,7.4,2.2,14.7,3.5,22C316.5,126.2,317.4,131.3,318.3,136.4 M323.2,138.1c3.4-2.3,6.5-4.7,9-7.7c1.4-1.6,2.5-3.4,3-5.5
	c0.4-1.5,0.6-3.1-0.1-4.5c-0.5-1.1-1.2-1.4-2.2-0.4c-3.8,3.6-7.2,7.5-7.9,13c-0.1,0.9-0.7,1.8-1,2.7
	C323.5,136.3,322.9,137,323.2,138.1"/>
<path class="st0" d="M297.2,162.7c-3,5.4-10.4,6.7-14.8,2.9c-0.9,1.8-1.5,3.6-2.6,5.2c-1.9,2.7-4,4.8-7.5,5
	c-2.1,0.2-3.2-0.7-3.8-2.7c-0.9-3-0.5-6.1-0.2-9.1c0.3-2.6,0.7-5.2,0.6-7.8c0-0.9-0.1-1.8-0.3-2.7c-0.3-1.6-0.7-3.5-2.3-3.9
	c-1.6-0.5-3.2,0.6-4.4,1.8c-2,2-3.1,4.5-4.3,7c-0.4,0.8,0.2,1.5,0.4,2.2c1.7,5.4,2.8,10.9,2.2,16.6c-0.3,2.9-0.8,5.8-2.7,8.3
	c-0.7,0.9-1.3,2-2.7,1.8c-1.4-0.2-2-1.3-2.4-2.4c-1.6-4.2-1.6-8.6-1.2-13.1c0.2-2.3,0.8-4.5,1.7-6.7c0.7-1.6,0.6-3,0-4.6
	c-0.6-1.5-1-3.1-1.6-5c-1.9,3-3.6,5.8-5.7,8.3c-1,1.1-2,2.2-3.4,2.7c-0.3,0.1-0.7,0.4-1.1,0.2c-0.5-0.3-0.2-0.8-0.2-1.2
	c0.3-1.6,1.4-2.7,2.5-3.8c2.2-2,4-4.5,5.7-6.9c1.6-2.3,2-4.7,1.3-7.5c-1.6-5.5-2.9-11.1-3.4-16.9c-0.5-4.7-0.3-9.3,0.9-13.9
	c0.5-1.7,1.1-3.3,2.3-4.6c2.6-3,6.1-2.9,8.5,0.3c1.6,2.1,1.9,4.6,1.9,7.1c0.1,6.7-1.2,13.2-2.8,19.7c-0.5,2.2-1.2,4.4-2.1,6.5
	c-1,2.2-1.4,4.3-0.1,6.6c0.5,1,0.7,2.2,1.1,3.4c1-0.8,1.4-2,2.1-3c1.1-1.7,2.2-3.3,4-4.3c3-1.7,5.6-1,7.3,1.9
	c1.9,3.3,1.8,7,1.5,10.6c-0.2,2.9-0.6,5.8-0.3,8.8c0.2,1.5,0.9,2.1,2.3,2.2c1.8,0.1,3.2-0.6,4.4-1.9c1.6-1.8,2.4-4,3.2-6.3
	c0.1-0.3,0.1-0.7,0-0.9c-1.9-3.5-1.6-7.2-1.3-10.9c0.2-3.1,0.7-6.1,1.1-9.1c0.2-1.2,0.6-2.4,1.8-3c1-0.6,1.6-0.5,1.7,0.9
	c0.1,3.8-0.4,7.7-0.5,11.5c-0.1,3-0.1,6,0.9,8.9c1.3,3.8,3.6,5,7.4,4C293.7,164.7,295.3,163.8,297.2,162.7 M253.4,144.7
	c2.2-6.4,3.8-12.3,4.6-18.5c0.4-3.4,0.8-6.9,0.1-10.3c-0.6-3-2.6-3.8-5.2-1.9c-1.7,1.3-2.5,3-2.9,5C248.6,127.8,251,136,253.4,144.7
	 M254.2,169.9c-0.5,4.3-2.3,8.8,0.8,12.9C255.6,178.5,255.5,174.2,254.2,169.9"/>
<path class="st0" d="M249.3,72.5c1-2.2,2-4.4,3.1-6.5c1.3-2.7,2.9-5.3,5.1-7.4c1.9-1.8,4-2.7,6.6-1.6c2.6,1,3.5,3.2,3.6,5.8
	c0.2,4-1.3,7.8-1.7,11.7c-0.4,3.1-0.9,6.2-0.8,9.4c0.2,4.7,2.2,6.2,6.7,5.1c0.2-0.1,0.5-0.1,0.7-0.2c0.3,0.8-0.2,1.1-0.6,1.3
	c-3.5,2.6-8.6,0.8-9.7-3.4c-0.9-3.6-0.4-7.1,0.2-10.7c0.5-2.9,1-5.8,1.4-8.7c0.3-1.9,0.2-3.8-0.7-5.6c-0.8-1.7-1.6-1.9-3.1-0.7
	c-2.9,2.3-5.1,5.2-6.7,8.5c-1.3,2.7-2.2,5.6-3.2,8.4c-0.6,1.7,0.1,3.4,0.3,5.1c0.2,2.2,0.3,4.5-0.5,6.6c-0.2,0.7-0.5,1.3-0.9,1.9
	c-0.7,1-1.7,1.4-2.9,1.2c-1.2-0.2-1.5-1.3-1.6-2.3c-0.3-2.4,0.1-4.7,0.9-7c0.4-1.3,0.9-2.5,1.2-3.8c0.5-2.1,0.4-4.1-1.1-6.4
	c-0.4,3-0.6,5.6-1,8.2c-0.3,2.6-1,5.1-1.5,7.7c-0.7,3.6-2.5,6.5-5,9.1c-3.3,3.4-6.4,3.9-10.2,1.5c-0.3-0.2-0.4-0.6-0.6-0.9
	c-3.2-5.3-2.9-11-1.9-16.8c0.4-2.1,1-4.2,1.4-6.4c0.2-1.2,0.7-1,1.4-0.5c1.3,1.1,1.4,2.6,1.2,4.1c-0.2,2.3-0.6,4.6-0.8,6.8
	c-0.3,2.8-0.1,5.6,0.6,8.4c0.9,3.6,3.4,4.5,6.5,2.3c2.4-1.8,3.7-4.4,4.6-7.1c1.8-5.3,2.2-10.7,2.7-16.2c0.2-2.5,0.5-5.1,0.8-7.6
	c0.1-0.8,0.2-1.7,1.3-1.9c1.1-0.1,1.6,0.7,1.9,1.5c0.8,1.8,1,3.7,1.4,5.6c0.1,0.5,0.3,1,0.4,1.5C249,72.5,249.2,72.5,249.3,72.5"/>
<path class="st0" d="M375.9,97.2c1.7,3.7,1.7,7.6,1.1,11.4c-1.5,10.3-6.8,18.6-13.8,26c-2.4,2.5-5.4,4.3-9,4.7
	c-0.8,0.1-1.6,0.4-2.4,0.7c-3.6,1.4-5.3,1-7.8-1.8c-1.7-1.9-1.7-1.9-3,0.4c-0.8,1.4-1.4,2.9-2.9,3.7c-0.5,0.3-1,0.8-1.6,0.3
	c-0.4-0.4-0.6-1-0.4-1.6c0.2-0.8,0.6-1.6,1.1-2.2c4.9-6.6,6.8-14.4,8.5-22.2c0.1-0.7,0-1.4-0.1-2.1c-0.6-3.2-0.2-6.4,0.5-9.5
	c0.1-0.4,0.3-0.9,0.5-1.2c0.4-0.8,0.9-1.5,1.9-1.2c0.9,0.3,0.9,1.1,0.9,1.9c-0.1,1.7-0.1,3.3-0.3,5c-0.4,3.7,0.8,6.8,3.1,9.6
	c2.4,2.9,4.3,6,4.8,9.9c0.3,1.8,0.1,3.6-0.1,5.5C364.6,131.5,377.1,109.3,375.9,97.2 M353.6,131.2c-0.2-3.6-1.6-7-4.7-9.7
	c-1-0.9-1.7-1.2-2,0.6c-0.5,3-1.5,5.9-2.5,8.8c-0.9,2.8-0.6,3.5,2.2,4.7c0.4,0.2,0.8,0.3,1.3,0.4
	C352.1,137.2,353.5,136.2,353.6,131.2"/>
<path class="st0" d="M160.8,132.4c0.2,1-0.4,1.6-1,2.1c-4,3.6-8.5,5.4-13.9,3.5c-1-0.4-1.3,0.1-1.8,0.6c-1.1,1.3-2.1,2.6-3.2,3.8
	c-1.1,1.3-2.4,2.1-4.3,1.8c0.9-3,2.8-5.4,4.8-7.6c1-1.1,1-1.9,0.5-3.3c-3.4-8.3-2.4-16.2,2.2-23.8c0.8-1.3,1.8-2.3,3-3.1
	c2-1.4,2.4-1.4,4.1,0.5c3.1,3.6,3.1,7.9,2.5,12.2c-0.7,5.3-2.6,10.3-5.9,14.6c-0.7,0.9-0.4,1.4,0.3,2c1.4,1.2,3,1.5,4.7,1.1
	c2.5-0.5,4.6-1.8,6.5-3.4C159.9,133,160.1,132.4,160.8,132.4 M145.6,131.2c2.2-3.6,4-6.9,5.2-10.5c1.1-3.4,1.5-6.9,0.5-10.4
	c-0.3-1-0.2-2.5-1.4-2.7c-1.3-0.3-2.3,0.8-3.2,1.7c-0.3,0.4-0.6,0.8-0.8,1.3C143.1,117.4,143.2,124.1,145.6,131.2"/>
<path class="st0" d="M226.6,61.3c-0.3,0.9-0.6,2.1-1.8,2.3c-0.8,0.1-1.8-0.8-1.8-1.7c0-1.1,0.9-2,2.1-2.1
	C226,59.8,226.6,60.2,226.6,61.3"/>
<path class="st0" d="M282.4,130.4c0.8,0.1,1.5,0.3,1.4,1.3c-0.2,1-0.6,2.1-1.7,2.2c-0.8,0.1-1.7-0.6-1.6-1.5
	C280.4,131.2,281.3,130.6,282.4,130.4"/>
<path class="st0" d="M393.9,116.3c-0.9-0.4-1.7-1-2.6-1.3c1.2-0.3,2,0.4,2.8,1.1C394.1,116.2,394,116.2,393.9,116.3"/>
<path class="st0" d="M112.9,142.8c0.1,0,0.2-0.1,0.4-0.1c0,0.2-0.1,0.3-0.1,0.5C113.1,143,113,142.9,112.9,142.8"/>
<path class="st0" d="M245.3,171.5c1.6,0.9,1.8,2.1,1.9,3.2c0.3,2,0.3,4.1-0.3,6.1c-3.4,10.7-9.2,19.6-19.4,24.9
	c-8.6,4.5-16.9,3.6-24.4-2.9c-4.7-4.1-8.7-8.6-11-14.5c-0.3-0.7-0.7-1-1.4-0.9c-12,0.5-23.9-1.3-35.7-2.7
	c-10.9-1.3-21.8-2.4-32.7-0.9c-10.2,1.4-19.3,5-26.6,12.4c-8,8.1-7.2,17.9,2.2,24.5c3.5,2.4,7.3,4,11.6,4c2.8,0,5-1.1,6.4-3.5
	c1.5-2.5,2.6-5.3,2.9-8.3c0.3-2.8-0.5-5.3-2.6-7.3c-0.6-0.6-1.2-1.3-2-2.1c1.8-0.1,2.8,0.8,3.6,1.7c3.1,3.4,3.6,7.5,2.4,11.7
	c-1.2,4.3-3.1,8.3-8,9.7c-2.2,0.6-4.5,0.6-6.7,0.1c-5-1-9.2-3.4-12.7-7.1c-6.3-6.7-6.8-15.2-1-22.4c5.9-7.4,13.9-11.7,23-14.1
	c9.3-2.5,18.9-2.4,28.4-1.8c13.7,1,27.3,3.4,41.1,3.8c1.7,0,3.3,0,5,0c1.4,0,1.8-0.2,1.4-1.8c-2.1-10.5-1.9-20.9,0.6-31.4
	c1.9-7.8,4.7-15.1,9.6-21.5c3.4-4.5,7.4-8.3,11.9-11.6c5.8-4.2,13.3-4.4,17.9,0c6.7,6.4,10.5,14.2,8.5,23.8c-1,4.6-1.9,9.3-4.8,13.2
	c-0.4,0.6-0.8,1.5-1.4,1.8c-2.2,1.2-2.5,3.1-2.8,5.3c-0.7,5.5-3.9,9.8-8,13.4c-5.5,4.8-11.9,7.8-19,9.4c-1.5,0.3-2,0.7-1.1,2.3
	c2.4,4.5,5.1,8.6,9.2,11.9c3.8,3.1,7.9,4,12.5,2.8s8.6-3.5,11.9-6.9c4.4-4.6,8-9.8,9.9-16C246.4,177.2,246.7,174.6,245.3,171.5
	 M222,119.8c-4,0.9-7.5,2.8-10,6.3c-6.2,8.7-11.2,18-12.9,28.7c-1.4,9.1-1.3,18.2,0.8,27.2c0.2,0.9,0.1,2.1,1.8,1.7
	c7.4-1.8,14.2-4.7,19.8-9.9c3.5-3.2,5.9-7.2,6.4-12.1c0.1-1.1,0-1.5-1.2-1.3c-3.7,0.4-6.8-1.1-9.1-3.9c-2.3-2.8-1.8-6.2,1.3-8.7
	c2.7-2.2,5.4-1.7,7.7,1.3c0.9,1.2,1.6,2.5,2.2,3.8c0.5,1.2,0.9,2.4,1.3,3.6c0.9-0.3,1.4-1,2-1.6c2.3-2.5,3.5-5.6,4.4-8.8
	c2.2-8.5-4-18.9-6.6-22.5C227.6,120.5,222,119.8,222,119.8 M222,148.8c-2.3,0.1-4,3.3-2.9,5.5s5.1,4.3,7.6,4c0.8-0.1,1.3-0.4,1-1.3
	c-0.7-2.5-1.7-4.8-3.3-6.8C223.8,149.4,223.1,148.8,222,148.8"/>
</svg>
